<?xml version="1.0" encoding="UTF-8"?>
<!DOCTYPE svg PUBLIC "-//W3C//DTD SVG 1.1//EN" "http://www.w3.org/Graphics/SVG/1.1/DTD/svg11.dtd">
<!-- Creator: CorelDRAW -->
<svg xmlns="http://www.w3.org/2000/svg" xml:space="preserve" width="47px" height="47px" version="1.1" style="shape-rendering:geometricPrecision; text-rendering:geometricPrecision; image-rendering:optimizeQuality; fill-rule:evenodd; clip-rule:evenodd"
viewBox="0 0 2.09 2.09"
 xmlns:xlink="http://www.w3.org/1999/xlink"
 xmlns:xodm="http://www.corel.com/coreldraw/odm/2003">
 <defs>
  <style type="text/css">
   <![CDATA[
    .fil0 {fill:#B3D9F6}
   ]]>
  </style>
 </defs>
 <g id="Arte">
  <metadata id="CorelCorpID_0Corel-Layer"/>
  <path class="fil0" d="M1.29 1.17c-0.02,0.03 -0.08,0.11 -0.11,0.13 -0.06,-0.01 -0.14,-0.06 -0.18,-0.09 -0.09,-0.05 -0.14,-0.12 -0.19,-0.2 -0.06,-0.09 0.02,-0.08 0.06,-0.16 0.02,-0.04 0,-0.07 -0.02,-0.1 -0.01,-0.03 -0.06,-0.17 -0.08,-0.18 -0.02,-0.02 -0.09,-0.02 -0.12,-0.01 -0.02,0.01 -0.05,0.04 -0.07,0.06 -0.1,0.12 -0.07,0.28 0.01,0.41 0.22,0.39 0.82,0.7 0.96,0.37 0.05,-0.11 0.03,-0.12 -0.06,-0.16 -0.05,-0.02 -0.14,-0.08 -0.2,-0.07zm-1.29 0.92c0.14,-0.02 0.31,-0.08 0.45,-0.11 0.17,-0.05 0.11,0.04 0.42,0.09 0.4,0.07 0.78,-0.1 0.98,-0.37 0.04,-0.05 0.08,-0.1 0.12,-0.16 0.14,-0.28 0.16,-0.62 0.04,-0.9 -0.31,-0.71 -1.23,-0.87 -1.77,-0.26 -0.24,0.27 -0.33,0.79 -0.12,1.15 0.03,0.05 0.02,0.06 0,0.12l-0.12 0.44zm0.25 -0.25l0.27 -0.06c0.1,-0.03 0.12,0.09 0.42,0.13 0.14,0.01 0.28,-0.01 0.39,-0.05 0.21,-0.07 0.39,-0.23 0.49,-0.42 0.05,-0.11 0.08,-0.22 0.09,-0.36 0.02,-0.51 -0.4,-0.93 -0.91,-0.9 -0.27,0.01 -0.45,0.13 -0.61,0.3 -0.23,0.24 -0.29,0.68 -0.09,1.01 0.02,0.04 0.04,0.04 0.03,0.09 -0.02,0.07 -0.06,0.19 -0.08,0.26z"/>
 </g>
</svg>
